<?xml version="1.0" encoding="utf-8"?>
<!-- Generator: Adobe Illustrator 24.1.3, SVG Export Plug-In . SVG Version: 6.00 Build 0)  -->
<svg version="1.1" xmlns="http://www.w3.org/2000/svg" xmlns:xlink="http://www.w3.org/1999/xlink" x="0px" y="0px"
	 viewBox="0 0 792 612" style="enable-background:new 0 0 792 612;" xml:space="preserve">
<style type="text/css">
	.st0{display:none;}
	.st1{display:inline;}
	.st2{font-family:'MyriadPro-Regular';}
	.st3{font-size:12px;}
</style>
<g id="Layer_1" class="st0">
	<text transform="matrix(1 0 0 1 94.8306 119.1396)" class="st1 st2 st3">2D</text>
	<text transform="matrix(1 0 0 1 98.4253 155.4453)" class="st1 st2 st3">3D</text>
	<text transform="matrix(1 0 0 1 103.0981 208.6455)" class="st1 st2 st3">Animation</text>
	<text transform="matrix(1 0 0 1 158.8149 255.0161)" class="st1 st2 st3">Interactive Walkthourgh</text>
	<path class="st1" d="M819.02,373.42c0.16,2.61,0.26,5.03,0.46,7.43c0.35,4.18,0.8,8.35,1.15,12.53c0.32,3.85,0.52,7.7,0.9,11.55
		c0.05,0.46,0.85,1.01,1.41,1.21c0.59,0.21,1.32,0.05,2.1,0.05c0,2.18,0,4.2,0,6.38c-17.32,0-34.67,0-52.14,0c0-2.06,0-4.13,0-6.19
		c3.43-0.45,3.31-0.46,3.59-4.08c0.43-5.6,1.08-11.17,1.56-16.77c0.34-3.96,0.56-7.93,0.84-12.1c-0.96,0-1.76,0-2.56,0
		c-21.9,0-43.79-0.09-65.69,0.06c-5.09,0.04-9.99-4.84-9.97-10.05c0.12-45.7,0.12-91.41-0.01-137.11
		c-0.01-5.26,4.87-10.15,10.09-10.14c58.8,0.11,117.59,0.11,176.39,0c5.23-0.01,10.12,4.87,10.11,10.12
		c-0.12,45.7-0.12,91.41,0,137.11c0.01,5.22-4.85,10.12-10.16,10.08c-21.83-0.18-43.65-0.07-65.48-0.07
		C820.8,373.42,820,373.42,819.02,373.42z M707.26,347.11c61.26,0,122.25,0,183.39,0c0-0.87,0-1.61,0-2.35c0-39.01,0-78.02,0-117.03
		c0-3.79-1.15-4.94-4.94-4.94c-57.83,0-115.66,0-173.49,0c-3.81,0-4.96,1.14-4.96,4.91c0,39.01,0,78.02,0,117.03
		C707.26,345.48,707.26,346.22,707.26,347.11z M707.26,353.82c0,2.83,0,5.47,0,8.12c0,3.81,1.14,4.96,4.92,4.96
		c57.85,0,115.69,0,173.54,0c0.48,0,0.96,0.02,1.43-0.01c1.77-0.11,3.2-1.15,3.33-2.72c0.28-3.42,0.09-6.88,0.09-10.35
		C829.41,353.82,768.49,353.82,707.26,353.82z M782.97,406.05c10.8,0,21.33,0,32.04,0c-0.45-4.65-0.94-9.15-1.3-13.65
		c-0.47-5.8-0.86-11.61-1.23-17.41c-0.07-1.08-0.4-1.58-1.57-1.58c-7.97,0.04-15.95-0.01-23.92,0.08c-0.52,0.01-1.43,0.81-1.48,1.31
		c-0.39,4.04-0.59,8.1-0.9,12.15c-0.17,2.22-0.47,4.43-0.66,6.66C783.6,397.71,783.3,401.81,782.97,406.05z"/>
	<path class="st1" d="M628.73,428.34c-10.57-1.25-20.84-2.47-31.19-3.7c3.08-7.2,2.96-14.37,2.07-21.56
		c-0.83-6.7-2.04-13.36-2.83-20.07c-0.89-7.67-1.05-15.35,1.63-22.77c1.56-4.33,3.81-8.3,8.66-9.51c3.93-0.98,7.66,0.44,11.29,1.97
		c8.51,3.59,13,10.58,16.03,18.81c2.41,6.53,3.29,13.31,2.84,20.22c-0.3,4.63-1.8,8.97-3.57,13.28
		C630.65,412.35,628.11,419.85,628.73,428.34z M621.96,420.85c0.19-0.63,0.47-1.24,0.57-1.89c0.9-5.63,2.55-11.03,4.86-16.23
		c2.12-4.77,3.49-9.74,3.3-14.96c-0.18-4.95-1.11-9.8-2.79-14.52c-2.9-8.14-7.94-13.88-16.67-15.98c-2.32-0.56-3.68,0.27-4.83,1.88
		c-0.77,1.08-1.42,2.32-1.8,3.58c-2.32,7.78-2.08,15.66-0.69,23.57c0.63,3.62,1.32,7.24,1.83,10.88c0.41,3,0.74,6.02,0.84,9.04
		c0.14,4.14,0.04,8.28,0.04,12.8C611.38,419.58,616.54,420.2,621.96,420.85z"/>
	<path class="st1" d="M581.67,455.62c-10.48,1.34-20.7,2.65-30.59,3.92c-0.71-4.41-1.03-8.53-2.1-12.43
		c-1.27-4.61-3.1-9.07-4.85-13.53c-2.53-6.42-3.03-12.98-2.29-19.8c0.68-6.36,2.48-12.29,5.42-17.9
		c4.14-7.91,10.92-12.5,19.44-14.13c6.49-1.25,10.48,1.95,13.24,9.17c2.77,7.25,3.11,14.84,2.07,22.48
		c-0.88,6.43-2.12,12.82-2.79,19.27c-0.69,6.7-0.73,13.44,1.19,20.02C580.68,453.62,581.18,454.5,581.67,455.62z M572.87,450.01
		c-0.24-1.52-0.6-2.81-0.64-4.11c-0.22-7.3,0.08-14.57,1.43-21.78c0.7-3.74,1.46-7.5,1.75-11.28c0.3-3.88,0.32-7.81,0-11.68
		c-0.32-3.84-1.17-7.6-3.35-10.98c-1.27-1.96-2.77-2.29-4.8-1.8c-8.48,2.03-13.5,7.67-16.34,15.59c-1.4,3.92-2.13,7.94-2.56,12.11
		c-0.59,5.79,0.34,11.19,2.6,16.42c2.51,5.83,4.72,11.74,5.69,18.04c0.22,1.42,1.01,1.66,2.3,1.41c1.64-0.33,3.3-0.51,4.96-0.73
		C566.86,450.81,569.83,450.42,572.87,450.01z"/>
	<path class="st1" d="M570.11,194.75c0.98,3.49,1.72,6.48,2.66,9.41c1,3.11,1.58,6.23,1.51,9.53c-0.08,3.6,0.21,7.2,0.36,10.8
		c0.06,1.45-0.61,2.15-2.05,2.15c-5.96-0.02-5.12,0.53-6.64-4.52c-0.42-1.4-0.9-2.79-1.48-4.58c-1.75,2.09-3.37,3.94-4.91,5.87
		c-2.92,3.66-2.9,3.68-7.23,1.8c-2.62-1.14-2.8-1.6-1.44-4.06c1.21-2.18,2.34-4.43,3.72-6.5c2.73-4.09,1.45-8.48,1.2-12.81
		c-0.01-0.2-0.03-0.47-0.16-0.57c-3.73-2.91-3.82-7.28-4.27-11.34c-0.54-4.82,0.03-9.59,2.64-13.91c1.68-2.78,3.77-4.91,7.22-5.22
		c3.41-0.31,5.83,1.3,7.19,4.21c0.89,1.9,1.11,4.1,1.7,6.14c0.27,0.93,0.5,1.99,1.11,2.68c2.29,2.6,4.7,5.1,7.14,7.57
		c0.84,0.86,0.76,1.56,0.2,2.5c-2.5,4.19-2.48,4.2-6.72,1.76C571.48,195.45,571.07,195.25,570.11,194.75z M558.1,197.29
		c-0.22-2.89-0.46-5.59-0.62-8.29c-0.06-1-0.24-2.14,0.13-2.99c1.09-2.47,2.35-4.88,3.73-7.2c0.33-0.54,1.43-0.62,2.17-0.91
		c0.21,0.81,0.74,1.7,0.57,2.42c-0.3,1.22-0.88,2.46-1.62,3.48c-2.38,3.25-1.82,6.73-1.07,10.27c1.78,0,3.53,0,5.48,0
		c0-4.51,0.16-8.93-0.08-13.33c-0.09-1.73-0.82-3.55-1.7-5.07c-1.13-1.95-3.7-2.45-5.49-1.02c-1.37,1.09-2.6,2.61-3.34,4.19
		c-2.67,5.69-2.25,11.5-0.27,17.34C556.43,197.42,556.97,197.76,558.1,197.29z M571.21,223.61c0.68-8.99-0.73-17.11-3.56-25
		c-0.16-0.43-0.81-0.93-1.27-0.97c-1.54-0.12-3.1-0.05-4.94-0.05c0.76,2.34-0.95,2.77-2.58,3.44c0.44,0.77,0.71,1.46,1.16,2
		c3.87,4.65,7.07,9.65,8.37,15.68c0.25,1.18,0.56,2.37,1.07,3.45C569.69,222.7,570.43,223,571.21,223.61z M559.83,207.95
		c0.74,5.82-4.02,9.31-5.7,14.12c0.91,0.62,1.53,1.12,2.48-0.16c1.9-2.56,4.11-4.88,6-7.45c0.45-0.61,0.44-1.98,0.06-2.7
		C561.94,210.38,560.8,209.21,559.83,207.95z M575.62,193.22c-1.73-1.88-3.3-3.58-5.02-5.44
		C570.06,190.85,572.74,193.78,575.62,193.22z"/>
	<path class="st1" d="M582.42,459.61c0.44,3.56,0.83,6.75,1.23,9.93c0.23,1.79,0.54,3.58,0.7,5.38c0.32,3.68-0.75,7.02-2.77,10.04
		c-4.19,6.28-12.42,8.47-19.24,5.54c-5.31-2.29-8.53-6.31-9.35-12.04c-0.7-4.84-1.17-9.71-1.73-14.57c-0.02-0.19,0.06-0.38,0.1-0.62
		C561.62,462.06,571.86,460.85,582.42,459.61z M576.65,467.18c-0.99,0-1.81-0.08-2.6,0.01c-4.53,0.52-9.05,1.13-13.58,1.58
		c-1.72,0.17-1.95,1.09-1.76,2.47c0.26,1.85,0.57,3.7,0.78,5.56c0.58,5.02,4.12,8.37,9.29,8.37c4.66,0,8.82-4.14,8.71-8.7
		C577.41,473.45,576.95,470.45,576.65,467.18z"/>
	<path class="st1" d="M596.88,428.64c10.56,1.15,20.89,2.27,31.35,3.41c-0.69,5.7-0.97,11.35-2.13,16.81
		c-1.25,5.89-5.33,9.78-11.15,11.28c-9.21,2.37-18.08-3.3-19.7-12.62c-0.49-2.8,0.05-5.8,0.32-8.7
		C595.88,435.5,596.41,432.19,596.88,428.64z M620.8,437.89c-2.1-0.22-3.96-0.4-5.81-0.62c-3.32-0.38-6.65-0.73-9.95-1.21
		c-2-0.29-2.52,0.07-2.58,2.17c-0.02,0.66-0.2,1.32-0.22,1.99c-0.08,2.31-0.47,4.68-0.1,6.92c0.7,4.18,4.9,7.22,9.29,6.9
		c4.03-0.29,7.56-2.96,8.24-7.4C620.1,443.82,620.41,440.99,620.8,437.89z"/>
	<path class="st1" d="M579.78,160.59c0.91-3.04,3.04-4.68,5.96-4.84c2.75-0.15,4.87,1.24,6.19,3.81c0.25,0.5,1.07,0.93,1.67,0.99
		c1.49,0.14,3,0.01,4.49,0.06c2.54,0.08,4.77,0.21,6.44-2.63c1.39-2.36,4.2-2.86,6.88-1.78c2.33,0.94,3.93,2.64,4.16,5.29
		c0.25,2.86-0.95,5.03-3.46,6.36c-3.11,1.65-6.82,0.29-8.7-2.92c-0.35-0.59-1.21-1.16-1.89-1.24c-1.55-0.18-3.13-0.03-4.7-0.07
		c-2.33-0.06-4.2-0.06-5.91,2.46c-2.66,3.9-8.09,3.12-10.42-1.07c-0.57-1.03-1.14-1.45-2.32-1.41c-2.45,0.09-4.91-0.06-7.36,0.09
		c-0.68,0.04-1.58,0.63-1.93,1.23c-1.71,2.91-4.64,4.22-7.74,3.28c-3.03-0.92-4.75-3.54-4.49-6.87c0.2-2.69,2.83-5.22,5.86-5.63
		c2.31-0.32,4.85,1.23,6.35,3.63c0.37,0.59,1.26,1.17,1.94,1.2C573.72,160.66,576.65,160.59,579.78,160.59z M559.91,161.93
		c-0.02,2,1.14,3.31,2.97,3.35c1.94,0.04,3.19-1.16,3.24-3.11c0.05-2.13-1.08-3.37-3.12-3.42
		C561.1,158.71,559.93,159.91,559.91,161.93z M612.31,162.49c0.03-1.99-1.11-3.26-2.99-3.34c-1.85-0.08-3.33,1.28-3.34,3.06
		c0,1.72,1.49,3.26,3.2,3.29C610.88,165.51,612.29,164.16,612.31,162.49z M586.27,158.94c-1.57-0.01-3.4,1.74-3.36,3.21
		c0.05,1.65,1.53,3.11,3.16,3.13c1.67,0.02,3.33-1.58,3.31-3.19C589.37,160.46,587.87,158.94,586.27,158.94z"/>
	<path class="st1" d="M569.52,149.48c-4.17,0.32-7.49-0.66-10.12-3.52c-1.77-1.92-2.69-4.19-2.73-6.77
		c-0.06-3.1-0.29-6.22,1.54-9.04c2.14-3.3,5.26-4.99,9.01-5.09c5.36-0.13,10.75-0.08,16.09,0.39c4.88,0.43,8.55,5.04,8.53,10
		c-0.01,2.09,0.14,4.27-0.38,6.25c-1.21,4.67-5.18,7.58-9.96,7.85c-0.57,0.03-1.31,0.33-1.63,0.76c-2.44,3.23-6.01,4.21-9.69,4.9
		c-1.33,0.25-2.16-1.01-1.74-2.36C568.74,151.84,569.08,150.83,569.52,149.48z M572.75,151.89c1.49-1.22,3.34-2.21,4.37-3.74
		c0.83-1.23,1.61-1.49,2.86-1.71c1.89-0.34,3.92-0.61,5.54-1.53c3.25-1.84,3.08-5.2,3.15-8.45c0.12-5.33-3.35-8.09-8.27-8.21
		c-4.09-0.1-8.19-0.14-12.27,0.04c-1.63,0.07-3.37,0.56-4.8,1.34c-3.16,1.73-3.52,4.79-3.45,8.08c0.12,5.73,2.66,8.5,8.35,8.77
		C573.22,146.71,573.22,146.71,572.75,151.89z"/>
	<path class="st1" d="M594.7,244.43c0.22-1.68,0.45-3.47,0.65-5.02c2.91-0.31,5.63-0.65,8.37-0.86c1.13-0.09,2.32-0.04,3.43,0.19
		c2.85,0.6,3.47,2.31,1.85,4.77c-1.69,2.55-5.87,3.7-9.18,2.56C598.22,245.52,596.61,245.04,594.7,244.43z M596.19,243.37
		c1.51,0.54,2.89,1.08,4.3,1.52c2.13,0.66,4.25,0.39,6.04-0.86c0.9-0.63,1.37-1.9,2.03-2.87c-0.98-0.44-1.94-0.96-2.96-1.3
		c-0.48-0.16-1.07-0.03-1.61,0.03c-2.48,0.27-4.96,0.56-7.57,0.86C596.35,241.51,596.27,242.44,596.19,243.37z"/>
	<path class="st1" d="M563.59,244.43c0.21-1.66,0.44-3.46,0.64-5.01c2.97-0.32,5.76-0.67,8.56-0.9c1.07-0.09,2.18-0.02,3.23,0.21
		c2.86,0.61,3.49,2.3,1.87,4.76c-1.68,2.55-5.86,3.71-9.17,2.58C567.12,245.53,565.51,245.04,563.59,244.43z M565.06,243.35
		c1.46,0.53,2.7,1.03,3.98,1.44c2.48,0.8,4.89,0.5,6.91-1.12c0.74-0.59,0.98-1.8,1.45-2.72c-0.84-0.36-1.68-1.04-2.51-1.01
		c-3.15,0.11-6.28,0.45-9.53,0.71C565.26,241.52,565.17,242.38,565.06,243.35z"/>
	<path class="st1" d="M558.25,235.1c-0.19-1.61-0.41-3.4-0.64-5.35c3.56-0.34,6.59-2.87,10.32-1.64c1.86,0.62,3.53,1.37,4.36,3.32
		c0.88,2.08,0.35,3.63-1.85,3.97c-2.03,0.31-4.15,0.05-6.23-0.01C562.32,235.32,560.45,235.2,558.25,235.1z M559.35,233.56
		c2.73,0.33,5.08,0.69,7.44,0.87c1.13,0.09,2.3-0.07,3.42-0.29c1.2-0.25,1.66-1.28,0.87-2.12c-1.01-1.07-2.37-2.48-3.63-2.53
		c-2.73-0.12-5.5,0.54-8.43,0.9C559.18,231.86,559.27,232.77,559.35,233.56z"/>
	<path class="st1" d="M589.4,235.35c-0.23-1.84-0.45-3.64-0.7-5.61c3.51-0.27,6.6-3.02,10.24-1.57c1.55,0.62,3.22,1.6,4.18,2.9
		c1.58,2.13,0.7,4.04-1.94,4.4c-1.97,0.27-4.02-0.08-6.04-0.11C593.33,235.33,591.52,235.35,589.4,235.35z M590.6,233.59
		c2.84,0.34,5.45,0.84,8.08,0.88c1.26,0.02,3.37-0.56,3.62-1.34c0.53-1.65-1.06-2.71-2.56-3.38c-0.43-0.19-0.91-0.27-1.35-0.42
		c-2.19-0.76-4.07,0.42-6.09,0.88C590.04,230.71,589.8,231.82,590.6,233.59z"/>
	<path class="st1" d="M587.93,229.69c0.22,2.12,0.43,4.04,0.64,6.1c-2.08,0.06-4.21,1.22-5.55-0.92c-0.51-0.81-0.59-2.31-0.19-3.19
		C583.79,229.56,585.95,229.99,587.93,229.69z M586.83,230.84c-1.22,0.6-2.2,0.91-2.91,1.53c-0.27,0.24-0.12,1.57,0.21,1.76
		c0.77,0.45,1.76,0.51,2.7,0.73C586.83,233.44,586.83,232.45,586.83,230.84z"/>
	<path class="st1" d="M556.84,229.66c0.23,2.23,0.42,4.09,0.62,6.1c-2.04,0.11-4.15,1.24-5.53-0.86c-0.52-0.8-0.62-2.3-0.24-3.19
		C552.62,229.57,554.81,230.02,556.84,229.66z M555.91,234.98c-0.09-1.54-0.15-2.57-0.25-4.17c-1.22,0.61-2.18,0.9-2.82,1.51
		c-0.29,0.27-0.18,1.57,0.14,1.77C553.74,234.56,554.74,234.65,555.91,234.98z"/>
	<path class="st1" d="M563.48,238.6c-0.26,2.12-0.49,4.03-0.73,6.02c-2.1-0.15-4.33,0.22-5.19-2.08c-0.33-0.89-0.08-2.4,0.51-3.16
		C559.47,237.56,561.48,238.47,563.48,238.6z M562.05,239.94c-0.16-0.19-0.32-0.39-0.48-0.58c-0.92,0.36-1.93,0.61-2.73,1.16
		c-0.28,0.19-0.31,1.4-0.03,1.64c0.68,0.59,1.62,0.89,2.75,1.45C561.77,242.04,561.91,240.99,562.05,239.94z"/>
	<path class="st1" d="M594.6,238.54c-0.27,2.2-0.5,4.12-0.74,6.1c-2.1-0.2-4.36,0.2-5.19-2.13c-0.32-0.9-0.06-2.39,0.53-3.16
		C590.61,237.52,592.61,238.53,594.6,238.54z M593.17,239.75c-1.82-0.26-3.36-0.36-3.45,1.57c-0.08,1.77,1.38,1.87,2.98,1.9
		C592.85,242.07,593,240.98,593.17,239.75z"/>
	<path class="st1" d="M766.21,289.93c0-3.75-0.07-7.5,0.05-11.25c0.03-0.92,0.4-2.16,1.07-2.67c4.92-3.73,9.62-7.96,15.04-10.78
		c8.93-4.65,18.33-8.37,27.56-12.44c2.33-1.03,3.67-0.7,5.21,1.15c5.24,6.31,10.49,12.61,15.66,18.98c0.54,0.66,0.85,1.7,0.86,2.57
		c0.07,7.43,0.02,14.86,0.05,22.29c0.01,1.49-0.51,2.58-1.84,3.32c-9.71,5.38-19.39,10.84-29.17,16.11
		c-1.03,0.55-2.82,0.37-3.98-0.12c-7.97-3.4-15.88-6.97-23.8-10.5c-1.41-0.63-2.78-1.35-4.22-1.92c-1.81-0.72-2.55-1.96-2.51-3.91
		C766.28,297.16,766.21,293.54,766.21,289.93z M823.1,274.31c-0.19-0.37-0.26-0.57-0.39-0.72c-3.62-4.39-7.23-8.8-10.93-13.11
		c-0.34-0.39-1.46-0.47-2.03-0.24c-2.37,0.94-4.67,2.05-7,3.1c-4.96,2.22-9.91,4.44-15.04,6.74c4.18,5.83,8.23,11.49,12.25,17.12
		C807.82,282.81,815.4,278.59,823.1,274.31z M772.75,283.61c0,4.91,0.04,9.47-0.03,14.03c-0.02,1.19,0.36,1.76,1.46,2.22
		c3.77,1.59,7.49,3.31,11.24,4.96c3.35,1.48,6.7,2.94,10.26,4.5c0-5.09,0.02-9.85-0.04-14.62c-0.01-0.46-0.45-1.13-0.87-1.32
		C787.57,290.14,780.33,286.96,772.75,283.61z M802.22,308.81c1.9-1.06,3.53-1.97,5.16-2.87c5.36-2.96,10.75-5.88,16.07-8.91
		c0.71-0.4,1.6-1.3,1.62-1.99c0.14-4.61,0.07-9.22,0.07-13.85c-0.29,0.03-0.44,0-0.55,0.06c-7.2,3.96-14.4,7.92-21.56,11.95
		c-0.45,0.25-0.79,1.08-0.8,1.65C802.19,299.34,802.22,303.84,802.22,308.81z M788.47,283.23c0.08-0.08,0.17-0.17,0.25-0.25
		c-2.26-3.16-4.52-6.32-6.87-9.59c-1.92,1.43-3.71,2.78-5.78,4.33C780.43,279.66,784.45,281.45,788.47,283.23z"/>
	<path class="st1" d="M835.74,289.26c2.25-2.21,4.37-4.33,6.53-6.41c1.61-1.54,3.41-1.56,5.01-0.03c2.17,2.07,4.28,4.2,6.37,6.26
		c-1.64,1.58-3.18,3.06-4.79,4.62c-0.18-0.14-0.64-0.47-1.13-0.83c-4.87,21.5-17.51,35.67-39.12,40.28
		c-16.88,3.61-31.86-1.31-44.67-13.55c1.38-1.3,2.69-2.47,3.92-3.71c0.76-0.77,1.31-0.68,2.04,0.04
		c6.43,6.28,14.24,9.94,23.04,11.16c11.66,1.63,22.39-1.15,31.78-8.33c7.68-5.87,12.86-13.51,15.31-22.95
		c0.34-1.31,0.21-2.16-0.76-3.05C838.12,291.71,837.04,290.56,835.74,289.26z"/>
	<path class="st1" d="M762.2,280.66c-2.32,2.3-4.38,4.38-6.48,6.42c-1.72,1.67-3.46,1.7-5.15,0.08c-2.16-2.08-4.28-4.2-6.45-6.33
		c1.66-1.6,3.22-3.09,4.8-4.61c0.3,0.24,0.71,0.57,1.27,1.03c4.16-19.24,14.91-32.9,33.75-38.92c18.78-6.01,35.42-1.41,49.85,11.83
		c-0.22,0.33-0.27,0.46-0.36,0.55c-1.36,1.33-2.62,3.55-4.12,3.73c-1.33,0.16-2.94-1.93-4.41-3.05c-6.54-4.94-13.82-7.82-22.04-8.59
		c-10.62-1-20.16,1.69-28.76,7.82c-8.39,5.99-13.75,14.12-16.36,24.05c-0.18,0.67,0.23,1.73,0.72,2.3
		C759.55,278.27,760.86,279.38,762.2,280.66z"/>
	<path class="st1" d="M808.77,389.77c0,5.63-4.22,9.7-9.83,9.9c-5.04,0.19-9.94-4.83-9.9-9.93c0.04-4.96,4.82-10.02,10.03-9.8
		C804.51,380.17,808.77,384.28,808.77,389.77z M802.23,389.8c-0.01-1.47-1.82-3.27-3.28-3.27c-1.47,0-3.27,1.81-3.27,3.28
		c0,1.47,1.81,3.27,3.28,3.27C800.43,393.08,802.23,391.26,802.23,389.8z"/>
	<path class="st1" d="M574.38,138.89c2.59,0,5.18-0.11,7.76,0.07c0.71,0.05,1.37,0.94,2.05,1.44c-0.64,0.58-1.27,1.64-1.92,1.66
		c-5.31,0.14-10.62,0.13-15.93,0c-0.65-0.02-1.72-1-1.8-1.64c-0.17-1.28,0.95-1.55,2.09-1.54
		C569.2,138.91,571.79,138.89,574.38,138.89z"/>
	<path class="st1" d="M570.39,132.75c1.36,0,2.74-0.16,4.06,0.07c0.67,0.12,1.21,0.94,1.82,1.45c-0.55,0.5-1.08,1.39-1.66,1.42
		c-2.84,0.15-5.7,0.14-8.54,0c-0.56-0.03-1.09-0.87-1.63-1.33c0.56-0.54,1.06-1.43,1.69-1.54
		C567.51,132.59,568.96,132.75,570.39,132.75z"/>
</g>
<g id="Layer_2">
	<g>
		<g>
			<path d="M632.11,307.19H194.02V55.55c0-15.6,12.69-28.29,28.29-28.29h381.51c15.6,0,28.29,12.69,28.29,28.29V307.19z
				 M207.5,293.72h411.14V55.55c0-8.17-6.65-14.82-14.82-14.82H222.31c-8.17,0-14.82,6.65-14.82,14.82V293.72z"/>
			<g>
				<path d="M200.76,300.46v14.28c0,11.9,9.65,21.55,21.55,21.55h381.51c11.9,0,21.55-9.65,21.55-21.55v-14.28H200.76z"/>
				<path d="M603.82,343.03H222.31c-15.6,0-28.29-12.69-28.29-28.29v-21.02h438.08v21.02C632.11,330.34,619.42,343.03,603.82,343.03
					z M207.5,307.19v7.54c0,8.17,6.65,14.82,14.82,14.82h381.51c8.17,0,14.82-6.65,14.82-14.82v-7.54H207.5z"/>
			</g>
		</g>
		<rect x="329.68" y="401.81" width="166.77" height="11.23"/>
		<path d="M345.71,413.03v-11.23c8.82,0,45.58-26.15,45.58-65.52h11.23C402.51,382.89,360.31,413.03,345.71,413.03z"/>
		<path d="M480.42,413.03c-14.6,0-56.8-30.15-56.8-76.74h11.23c0,39.37,36.76,65.52,45.58,65.52V413.03z"/>
	</g>
</g>
<g id="Layer_3" class="st0">
	<path class="st1" d="M390.93,287.49c-0.81,0-1.62-0.18-2.37-0.52l-93.93-43.7c-2.01-0.94-3.28-2.97-3.24-5.19l1.38-80.79
		c0.03-1.9,1.02-3.65,2.63-4.66c1.61-1.01,3.62-1.14,5.35-0.33l91.75,42.68l131.99-51.6c1.74-0.68,3.71-0.45,5.25,0.62
		c1.54,1.07,2.44,2.83,2.41,4.71l-1.38,80.79c-0.04,2.28-1.45,4.3-3.57,5.13l-134.23,52.47
		C392.32,287.37,391.62,287.49,390.93,287.49z M302.68,234.63l88.44,41.15l128.49-50.23l1.17-68.65l-126.43,49.42
		c-1.43,0.55-3.02,0.51-4.41-0.14l-86.09-40.05L302.68,234.63z"/>
	<path class="st1" d="M390.93,287.49c-0.03,0-0.07,0-0.1,0c-3.1-0.05-5.57-2.61-5.52-5.71l1.36-79.68l-33.91-86.97l-50.59,46.4
		c-2.28,2.1-5.83,1.94-7.93-0.34c-2.1-2.28-1.94-5.84,0.34-7.93l56.63-51.94c1.37-1.25,3.26-1.75,5.06-1.33
		c1.8,0.42,3.29,1.7,3.96,3.43l37.29,95.64c0.27,0.68,0.4,1.41,0.38,2.14l-1.38,80.79C396.49,285.04,393.99,287.49,390.93,287.49z"
		/>
	<path class="st1" d="M526.54,154.24c-2.25,0-4.37-1.36-5.23-3.58l-35.25-90.41l-128.99,50.43c-2.89,1.13-6.14-0.3-7.27-3.18
		c-1.13-2.89,0.3-6.14,3.18-7.27L487.2,47.75c1.39-0.54,2.93-0.51,4.3,0.09c1.36,0.6,2.43,1.71,2.98,3.1l37.29,95.64
		c1.13,2.89-0.3,6.14-3.19,7.27C527.91,154.11,527.22,154.24,526.54,154.24z"/>
	<path class="st1" d="M412.11,174.16c-1.02,0-1.99-0.55-2.49-1.5l-16.94-32.26c-0.56-1.06-0.38-2.36,0.45-3.23
		c0.82-0.87,2.11-1.12,3.2-0.63l16.26,7.39l27.64-11.09c0.87-0.35,1.86-0.24,2.64,0.29c0.78,0.53,1.23,1.42,1.21,2.36l-0.42,24.37
		c-0.02,1.13-0.71,2.14-1.76,2.56l-28.75,11.54C412.81,174.09,412.46,174.16,412.11,174.16z M401.46,145.03l11.96,22.77l24.67-9.9
		l0.31-18.28l-24.83,9.96c-0.71,0.29-1.51,0.27-2.21-0.05L401.46,145.03z"/>
	<path class="st1" d="M412.11,174.16c-0.02,0-0.03,0-0.05,0c-1.55-0.03-2.78-1.3-2.76-2.85l0.42-24.37
		c0.01-0.37,0.09-0.73,0.23-1.07l12.22-28.17c0.37-0.85,1.14-1.47,2.05-1.64c0.91-0.17,1.85,0.12,2.51,0.78l16.53,16.64
		c1.09,1.1,1.09,2.88-0.01,3.97c-1.1,1.09-2.88,1.09-3.97-0.01l-13.61-13.7l-10.35,23.86l-0.41,23.81
		C414.89,172.93,413.64,174.16,412.11,174.16z"/>
	<path class="st1" d="M395.17,141.9c-1.24,0-2.37-0.83-2.71-2.08l-10.33-38.43c-0.28-1.05,0.07-2.17,0.89-2.87
		c0.83-0.7,1.99-0.87,2.98-0.41l39.91,18.14c1.41,0.64,2.03,2.3,1.39,3.72c-0.64,1.41-2.3,2.04-3.72,1.39l-34.49-15.68l8.78,32.68
		c0.4,1.5-0.48,3.04-1.98,3.44C395.65,141.86,395.41,141.9,395.17,141.9z"/>
	<path class="st1" d="M480.2,147.56c-1.02,0-1.99-0.55-2.49-1.5l-16.94-32.26c-0.56-1.06-0.38-2.36,0.44-3.23
		c0.82-0.87,2.11-1.12,3.2-0.63l16.26,7.39l27.64-11.09c0.87-0.35,1.86-0.24,2.64,0.29c0.78,0.53,1.23,1.42,1.21,2.36l-0.42,24.37
		c-0.02,1.13-0.71,2.14-1.76,2.56l-28.75,11.54C480.91,147.5,480.55,147.56,480.2,147.56z M469.55,118.44l11.96,22.77l24.67-9.9
		l0.31-18.28l-24.83,9.96c-0.71,0.28-1.51,0.27-2.21-0.05L469.55,118.44z"/>
	<path class="st1" d="M480.2,147.56c-0.02,0-0.03,0-0.05,0c-1.55-0.03-2.78-1.3-2.76-2.85l0.42-24.37c0.01-0.37,0.09-0.73,0.23-1.07
		l12.22-28.17c0.37-0.85,1.14-1.47,2.05-1.64c0.91-0.17,1.85,0.12,2.51,0.78l16.53,16.64c1.09,1.1,1.09,2.88-0.01,3.97
		c-1.1,1.09-2.88,1.09-3.97-0.01l-13.61-13.7l-10.35,23.86l-0.41,23.81C482.98,146.34,481.73,147.56,480.2,147.56z"/>
	<path class="st1" d="M463.26,115.31c-1.24,0-2.37-0.83-2.71-2.08L450.22,74.8c-0.28-1.05,0.07-2.17,0.89-2.87
		c0.83-0.7,1.99-0.86,2.98-0.41L494,89.66c1.41,0.64,2.04,2.3,1.39,3.72c-0.64,1.41-2.31,2.04-3.72,1.39l-34.49-15.68l8.78,32.68
		c0.4,1.5-0.48,3.04-1.98,3.44C463.75,115.27,463.5,115.31,463.26,115.31z"/>
	<path class="st1" d="M448.51,262.74c-0.02,0-0.04,0-0.06,0c-1.86-0.03-3.34-1.57-3.31-3.42l0.92-53.77
		c0.02-1.39,0.9-2.63,2.21-3.11l28.4-10.4c1.04-0.38,2.21-0.22,3.11,0.42c0.9,0.64,1.43,1.69,1.42,2.8l-0.92,53.77
		c-0.03,1.86-1.59,3.32-3.43,3.31c-1.86-0.03-3.34-1.57-3.31-3.43l0.84-48.86l-21.62,7.92l-0.88,51.45
		C451.84,261.27,450.34,262.74,448.51,262.74z"/>
	<path class="st1" d="M410.77,255.86c-0.69,0-1.37-0.21-1.95-0.62c-0.9-0.64-1.43-1.69-1.42-2.8l0.6-35.26
		c0.02-1.39,0.9-2.63,2.21-3.1l18.62-6.82c1.05-0.38,2.21-0.22,3.11,0.42c0.9,0.64,1.43,1.69,1.42,2.8l-0.6,35.26
		c-0.02,1.39-0.9,2.63-2.21,3.1l-18.62,6.82C411.56,255.8,411.16,255.86,410.77,255.86z M414.7,219.6l-0.48,28.04l11.85-4.34
		l0.48-28.04L414.7,219.6z M429.4,245.67h0.02H429.4z"/>
	<path class="st1" d="M491.54,227.85c-0.69,0-1.37-0.21-1.95-0.62c-0.9-0.64-1.43-1.69-1.42-2.8l0.6-35.26
		c0.02-1.39,0.9-2.63,2.21-3.1l18.63-6.82c1.04-0.38,2.21-0.22,3.11,0.42c0.9,0.64,1.43,1.69,1.42,2.8l-0.6,35.26
		c-0.02,1.39-0.9,2.63-2.21,3.1l-18.63,6.82C492.32,227.78,491.93,227.85,491.54,227.85z M495.47,191.59l-0.48,28.04l11.85-4.34
		l0.48-28.04L495.47,191.59z M510.17,217.66h0.02H510.17z"/>
</g>
<g id="Layer_3_copy" class="st0">
	<g class="st1">
		<path d="M333.91,272.16c-0.81,0-1.62-0.18-2.37-0.52l-84.21-39.17c-2.01-0.94-3.28-2.97-3.24-5.19l1.24-72.43
			c0.03-1.9,1.02-3.65,2.63-4.66c1.61-1.01,3.62-1.13,5.35-0.33l82.03,38.16l118.1-46.17c1.74-0.68,3.71-0.45,5.25,0.62
			c1.54,1.07,2.44,2.83,2.41,4.71l-1.24,72.42c-0.04,2.28-1.45,4.3-3.57,5.13l-120.33,47.04
			C335.29,272.03,334.6,272.16,333.91,272.16z M255.38,223.82l78.72,36.62l114.59-44.8l1.03-60.29l-112.54,43.99
			c-1.43,0.56-3.02,0.51-4.41-0.14l-76.37-35.53L255.38,223.82z"/>
		<path d="M333.91,272.16c-0.03,0-0.07,0-0.1,0c-3.1-0.05-5.57-2.61-5.52-5.71l1.22-71.32l-30.05-77.07l-44.73,41.03
			c-2.28,2.09-5.83,1.94-7.93-0.34c-2.1-2.28-1.94-5.84,0.34-7.93l50.77-46.57c1.37-1.25,3.26-1.75,5.06-1.33
			c1.8,0.42,3.29,1.7,3.96,3.43l33.43,85.74c0.27,0.68,0.4,1.41,0.38,2.13l-1.24,72.43C339.47,269.71,336.96,272.16,333.91,272.16z"
			/>
		<path d="M455.48,152.7c-2.25,0-4.37-1.36-5.23-3.58l-31.39-80.51l-115.1,45c-2.89,1.13-6.14-0.3-7.27-3.18
			c-1.13-2.89,0.3-6.14,3.18-7.27L420,56.11c1.39-0.54,2.93-0.51,4.3,0.09c1.36,0.6,2.43,1.71,2.98,3.1l33.43,85.74
			c1.13,2.89-0.3,6.14-3.19,7.27C456.85,152.57,456.16,152.7,455.48,152.7z"/>
		<path d="M352.89,170.26c-1.02,0-1.99-0.55-2.49-1.5l-15.19-28.92c-0.56-1.06-0.38-2.36,0.45-3.23c0.82-0.87,2.11-1.12,3.2-0.63
			l14.47,6.58l24.67-9.9c0.87-0.35,1.86-0.24,2.64,0.29c0.78,0.53,1.23,1.42,1.21,2.36l-0.37,21.85c-0.02,1.13-0.71,2.14-1.76,2.56
			l-25.78,10.34C353.6,170.2,353.24,170.26,352.89,170.26z M344,144.48l10.2,19.43l21.7-8.71l0.27-15.76l-21.86,8.77
			c-0.71,0.28-1.51,0.26-2.21-0.05L344,144.48z"/>
		<path d="M352.89,170.26c-0.02,0-0.03,0-0.05,0c-1.55-0.03-2.78-1.3-2.76-2.85l0.37-21.85c0.01-0.37,0.09-0.73,0.23-1.07
			l10.96-25.26c0.37-0.85,1.14-1.47,2.05-1.64c0.92-0.17,1.86,0.12,2.51,0.78l14.82,14.92c1.09,1.1,1.09,2.88-0.01,3.97
			c-1.1,1.09-2.88,1.09-3.97-0.01l-11.9-11.98l-9.09,20.95l-0.36,21.29C355.67,169.04,354.42,170.26,352.89,170.26z"/>
		<path d="M337.7,141.34c-1.24,0-2.37-0.83-2.71-2.08l-9.26-34.45c-0.28-1.05,0.07-2.17,0.89-2.87c0.83-0.7,1.99-0.86,2.98-0.41
			l35.78,16.27c1.41,0.64,2.03,2.3,1.39,3.72c-0.64,1.41-2.3,2.04-3.72,1.39l-30.36-13.8l7.71,28.7c0.4,1.5-0.48,3.04-1.98,3.44
			C338.19,141.31,337.94,141.34,337.7,141.34z"/>
		<path d="M413.94,146.42c-1.02,0-1.99-0.55-2.49-1.5L396.27,116c-0.56-1.06-0.38-2.36,0.44-3.23c0.82-0.87,2.11-1.13,3.2-0.63
			l14.47,6.58l24.66-9.9c0.87-0.35,1.86-0.24,2.64,0.29c0.78,0.53,1.23,1.42,1.21,2.36l-0.37,21.85c-0.02,1.13-0.71,2.14-1.76,2.56
			l-25.78,10.34C414.64,146.36,414.29,146.42,413.94,146.42z M405.04,120.64l10.2,19.43l21.7-8.7l0.27-15.76l-21.85,8.77
			c-0.71,0.29-1.51,0.27-2.21-0.05L405.04,120.64z"/>
		<path d="M413.94,146.42c-0.02,0-0.03,0-0.05,0c-1.55-0.03-2.78-1.3-2.76-2.85l0.37-21.85c0.01-0.37,0.09-0.73,0.23-1.07
			l10.96-25.26c0.37-0.85,1.14-1.47,2.05-1.64c0.91-0.17,1.85,0.12,2.51,0.78l14.82,14.92c1.09,1.1,1.09,2.88-0.01,3.97
			c-1.1,1.09-2.88,1.09-3.97-0.01l-11.9-11.98l-9.09,20.95l-0.36,21.29C416.72,145.2,415.47,146.42,413.94,146.42z"/>
		<path d="M398.75,117.5c-1.24,0-2.37-0.83-2.71-2.08l-9.26-34.45c-0.28-1.05,0.07-2.17,0.89-2.87c0.83-0.7,1.99-0.86,2.98-0.41
			l35.78,16.26c1.41,0.64,2.04,2.3,1.39,3.72c-0.64,1.41-2.3,2.04-3.72,1.39l-30.36-13.8l7.71,28.7c0.4,1.5-0.48,3.04-1.98,3.44
			C399.24,117.47,398.99,117.5,398.75,117.5z"/>
		<path d="M385.52,249.74c-0.02,0-0.04,0-0.06,0c-1.86-0.03-3.34-1.57-3.31-3.43l0.82-48.2c0.02-1.39,0.9-2.63,2.21-3.1l25.46-9.33
			c1.04-0.38,2.21-0.22,3.11,0.42c0.9,0.64,1.43,1.69,1.42,2.8l-0.82,48.2c-0.03,1.86-1.54,3.3-3.43,3.31
			c-1.86-0.03-3.34-1.57-3.31-3.43l0.74-43.29l-18.68,6.84l-0.78,45.89C388.86,248.27,387.36,249.74,385.52,249.74z"/>
		<path d="M351.7,243.57c-0.69,0-1.37-0.21-1.95-0.62c-0.9-0.64-1.43-1.69-1.42-2.8l0.54-31.61c0.02-1.39,0.9-2.63,2.21-3.1
			l16.7-6.12c1.04-0.38,2.21-0.22,3.11,0.42c0.9,0.64,1.43,1.69,1.42,2.8l-0.54,31.61c-0.02,1.39-0.9,2.63-2.21,3.1l-16.7,6.12
			C352.48,243.5,352.09,243.57,351.7,243.57z M355.56,210.96l-0.42,24.39l9.92-3.63l0.42-24.39L355.56,210.96z M368.39,234.09h0.02
			H368.39z"/>
		<path d="M424.11,218.46c-0.69,0-1.37-0.21-1.95-0.62c-0.9-0.64-1.43-1.69-1.42-2.8l0.54-31.61c0.02-1.39,0.9-2.63,2.21-3.1
			l16.7-6.12c1.04-0.38,2.21-0.23,3.11,0.42c0.9,0.64,1.43,1.69,1.42,2.8l-0.54,31.61c-0.02,1.39-0.9,2.63-2.21,3.1l-16.7,6.12
			C424.89,218.39,424.5,218.46,424.11,218.46z M427.97,185.84l-0.42,24.39l9.92-3.63l0.42-24.39L427.97,185.84z M440.8,208.97h0.02
			H440.8z"/>
	</g>
	<path class="st1" d="M562.71,194.79c-0.05,0-0.1,0-0.15-0.01c-0.61-0.08-1.04-0.65-0.96-1.26c0.02-0.17,2.3-17.31-1.82-26.02
		c-4.14-8.74-12.05-14.64-12.13-14.7c-0.5-0.37-0.61-1.07-0.24-1.57c0.37-0.5,1.07-0.61,1.57-0.24c0.34,0.25,8.44,6.28,12.83,15.55
		c4.41,9.31,2.12,26.56,2.02,27.28C563.74,194.38,563.26,194.79,562.71,194.79z"/>
	<path class="st1" d="M572.31,176.3c-0.08,0-0.16-0.01-0.24-0.03c-0.6-0.13-0.99-0.73-0.85-1.34c0.01-0.04,0.9-4.22-0.01-10.15
		c-0.88-5.73-8.46-11.96-8.53-12.02c-0.48-0.39-0.55-1.1-0.16-1.58c0.39-0.48,1.1-0.55,1.58-0.16c0.34,0.28,8.32,6.83,9.34,13.42
		c0.98,6.38,0.03,10.79-0.01,10.97C573.29,175.94,572.82,176.3,572.31,176.3z"/>
	<path class="st1" d="M487.35,271.2c-0.6,0-1.1-0.47-1.12-1.07c-0.04-0.92-0.95-22.61,0.01-29.55c0.98-7.05,7.53-18.89,7.81-19.39
		c0.3-0.54,0.98-0.74,1.53-0.44c0.54,0.3,0.74,0.99,0.44,1.53c-0.07,0.12-6.63,11.97-7.55,18.6c-0.93,6.74,0,28.92,0.01,29.15
		c0.03,0.62-0.45,1.14-1.07,1.17C487.38,271.2,487.37,271.2,487.35,271.2z"/>
	<path class="st1" d="M476.31,262.03c-0.51,0-0.97-0.35-1.09-0.87c-0.1-0.43-2.43-10.55-2.43-15.25c0-4.81,4.7-15.41,4.9-15.86
		c0.25-0.56,0.92-0.82,1.48-0.57c0.57,0.25,0.82,0.92,0.57,1.48c-0.05,0.11-4.7,10.62-4.7,14.95c0,4.44,2.35,14.65,2.37,14.75
		c0.14,0.6-0.24,1.21-0.84,1.35C476.48,262.02,476.39,262.03,476.31,262.03z"/>
	<path class="st1" d="M505.69,204.55c-8.97,5.15-8.94,5.13-14.22-3.72c-1.18-1.98-1.36-3.47,0.42-5.28
		c5.15-5.23,10.24-10.52,15.09-16.02c1.28-1.45,1.77-3.7,2.34-5.66c1.25-4.32,1.73-8.97,3.6-12.98c2.88-6.16,7.99-9.56,15.21-8.91
		c7.3,0.65,11.71,5.14,15.27,11.03c5.52,9.14,6.71,19.22,5.58,29.42c-0.95,8.58-1.14,17.83-9.02,23.98
		c-0.27,0.21-0.31,0.79-0.33,1.2c-0.53,9.15-3.23,18.44,2.54,27.09c2.92,4.38,5.31,9.12,7.87,13.74c2.88,5.21,2.51,6.18-3.04,8.6
		c-9.15,3.98-9.11,3.94-15.28-3.8c-3.25-4.07-6.68-7.99-10.38-12.41c-1.23,3.78-2.24,6.71-3.13,9.68
		c-3.21,10.68-1.44,9.52-14.04,9.56c-3.03,0.01-4.46-1.47-4.33-4.55c0.32-7.61,0.95-15.24,0.77-22.85
		c-0.17-6.99,1.07-13.57,3.19-20.16c1.99-6.2,3.56-12.52,5.63-19.91C507.41,203.65,506.53,204.07,505.69,204.55z M539.27,205.57
		c4.2-12.34,5.08-24.63-0.56-36.67c-1.57-3.35-4.18-6.55-7.07-8.86c-3.78-3.02-9.22-1.97-11.61,2.16c-1.86,3.22-3.4,7.08-3.59,10.73
		c-0.5,9.31-0.17,18.66-0.17,28.2c4.13,0,7.82,0,11.59,0c1.6-7.49,2.79-14.83-2.25-21.71c-1.58-2.16-2.8-4.77-3.43-7.36
		c-0.37-1.51,0.75-3.39,1.2-5.11c1.57,0.62,3.9,0.79,4.59,1.93c2.93,4.9,5.6,10,7.9,15.23c0.79,1.81,0.41,4.21,0.28,6.33
		c-0.34,5.72-0.84,11.42-1.31,17.54C537.22,208.96,538.35,208.24,539.27,205.57z M510.83,260.58c1.06-2.3,1.72-4.81,2.25-7.3
		c2.74-12.75,9.51-23.31,17.7-33.15c0.95-1.14,1.53-2.6,2.46-4.23c-3.46-1.42-7.06-2.34-5.46-7.28c-3.89,0-7.19-0.16-10.45,0.1
		c-0.97,0.08-2.36,1.13-2.69,2.04c-5.98,16.69-8.97,33.85-7.53,52.87C508.75,262.34,510.31,261.7,510.83,260.58z M525.15,238.57
		c-0.8,1.52-0.82,4.41,0.13,5.71c3.98,5.43,8.67,10.34,12.69,15.75c1.99,2.69,3.31,1.65,5.24,0.33
		c-3.54-10.17-13.61-17.57-12.05-29.87C529.11,233.16,526.69,235.64,525.15,238.57z M508.38,187.84
		c-3.62,3.93-6.95,7.54-10.61,11.51C503.87,200.55,509.53,194.35,508.38,187.84z"/>
	<path class="st1" d="M511.43,129.77c3.18-5.09,8.55-8.36,13.43-7.68c6.39,0.88,11.95,6.22,12.38,11.91
		c0.53,7.05-3.09,12.58-9.5,14.53c-6.56,1.99-12.76-0.79-16.37-6.94C508.72,136,508.81,133.07,511.43,129.77z M523.81,128.55
		c-4.32,0.1-6.7,2.72-6.59,7.23c0.1,4.12,2.76,6.67,6.86,6.58c3.87-0.08,6.33-2.85,6.29-7.09
		C530.32,130.99,527.84,128.46,523.81,128.55z"/>
</g>
<g id="Layer_3_copy_2" class="st0">
	<g class="st1">
		<path d="M592.51,171.41c-0.1,0-0.2-0.01-0.31-0.02c-1.23-0.17-2.09-1.3-1.92-2.53c0.03-0.19,2.51-18.86-1.93-28.23
			c-4.47-9.43-13.03-15.83-13.11-15.89c-1-0.74-1.21-2.14-0.47-3.14c0.74-1,2.14-1.21,3.14-0.48c0.39,0.29,9.54,7.1,14.51,17.58
			c5.01,10.57,2.43,29.94,2.32,30.76C594.58,170.59,593.61,171.41,592.51,171.41z"/>
		<path d="M603.13,150.94c-0.16,0-0.33-0.02-0.49-0.05c-1.21-0.27-1.97-1.47-1.7-2.68c0.01-0.04,0.95-4.51-0.03-10.86
			c-0.76-4.95-6.82-10.83-9.09-12.68c-0.96-0.78-1.11-2.2-0.32-3.16c0.78-0.96,2.2-1.11,3.16-0.32c0.39,0.31,9.51,7.81,10.69,15.48
			c1.11,7.24,0.02,12.3-0.03,12.51C605.09,150.23,604.16,150.94,603.13,150.94z"/>
		<path d="M512.68,248.82c-1,0-1.91-0.67-2.17-1.68c-0.19-0.74-4.72-18.2-3.61-26.21c1.11-7.99,8.45-21.25,8.76-21.81
			c0.6-1.08,1.97-1.47,3.05-0.87c1.08,0.6,1.47,1.97,0.87,3.05c-0.07,0.13-7.25,13.08-8.24,20.24c-0.99,7.13,3.46,24.29,3.51,24.46
			c0.31,1.2-0.4,2.43-1.6,2.74C513.05,248.8,512.86,248.82,512.68,248.82z"/>
		<path d="M496.9,245.81c-1.02,0-1.94-0.7-2.18-1.74c-0.11-0.48-2.71-11.79-2.71-17.1c0-5.44,4.94-16.7,5.51-17.96
			c0.5-1.13,1.83-1.64,2.96-1.14c1.13,0.5,1.64,1.83,1.14,2.96c-1.42,3.2-5.12,12.33-5.12,16.14c0,4.8,2.57,15.98,2.6,16.09
			c0.28,1.21-0.47,2.41-1.68,2.69C497.24,245.79,497.07,245.81,496.9,245.81z"/>
		<path d="M529.41,181.2c-9.93,5.7-9.89,5.68-15.74-4.12c-1.31-2.19-1.51-3.84,0.47-5.85c5.7-5.78,11.33-11.64,16.7-17.72
			c1.42-1.61,1.96-4.09,2.59-6.26c1.38-4.78,1.91-9.93,3.99-14.37c3.19-6.81,8.84-10.58,16.83-9.86c8.08,0.72,12.96,5.69,16.89,12.2
			c6.11,10.11,7.43,21.27,6.17,32.55c-1.05,9.5-1.26,19.73-9.98,26.54c-0.29,0.23-0.34,0.87-0.37,1.33
			c-0.59,10.13-3.58,20.41,2.81,29.98c3.23,4.85,5.88,10.09,8.71,15.21c3.19,5.76,2.77,6.84-3.36,9.51
			c-10.12,4.4-10.08,4.36-16.91-4.21c-3.59-4.5-7.39-8.84-11.49-13.73c-1.36,4.19-2.48,7.43-3.47,10.71
			c-3.55,11.82-1.59,10.53-15.54,10.57c-3.36,0.01-4.93-1.63-4.79-5.03c0.36-8.43,1.05-16.86,0.85-25.28
			c-0.18-7.74,1.18-15.02,3.53-22.31c2.2-6.86,3.94-13.86,6.23-22.03C531.31,180.21,530.34,180.67,529.41,181.2z M566.57,182.33
			c4.65-13.66,5.62-27.26-0.63-40.57c-1.74-3.71-4.62-7.25-7.83-9.81c-4.18-3.34-10.21-2.18-12.85,2.39
			c-2.06,3.56-3.76,7.83-3.98,11.87c-0.55,10.3-0.18,20.65-0.18,31.2c4.57,0,8.66,0,12.83,0c1.77-8.29,3.09-16.41-2.49-24.02
			c-1.75-2.39-3.1-5.28-3.8-8.14c-0.41-1.68,0.83-3.75,1.33-5.65c1.74,0.68,4.32,0.87,5.08,2.14c3.25,5.42,6.19,11.06,8.74,16.85
			c0.88,2,0.45,4.66,0.31,7c-0.38,6.33-0.93,12.64-1.45,19.4C564.31,186.08,565.56,185.29,566.57,182.33z M535.1,243.21
			c1.17-2.54,1.9-5.33,2.49-8.08c3.03-14.11,10.52-25.8,19.58-36.68c1.05-1.27,1.69-2.88,2.72-4.68c-3.82-1.57-7.82-2.59-6.05-8.06
			c-4.31,0-7.95-0.17-11.57,0.11c-1.07,0.08-2.62,1.25-2.98,2.26c-6.62,18.47-9.93,37.46-8.33,58.5
			C532.79,245.15,534.53,244.44,535.1,243.21z M550.95,218.85c-0.88,1.68-0.91,4.88,0.15,6.32c4.41,6.01,9.6,11.44,14.04,17.43
			c2.21,2.98,3.67,1.82,5.79,0.37c-3.92-11.26-15.06-19.44-13.33-33.05C555.32,212.87,552.65,215.6,550.95,218.85z M532.38,162.71
			c-4.01,4.35-7.7,8.35-11.74,12.74C527.4,176.77,533.65,169.91,532.38,162.71z"/>
		<path d="M535.77,98.45c3.52-5.63,9.46-9.25,14.87-8.5c7.08,0.97,13.23,6.89,13.7,13.18c0.59,7.8-3.42,13.92-10.52,16.07
			c-7.26,2.2-14.12-0.87-18.11-7.68C532.76,105.34,532.87,102.1,535.77,98.45z M549.46,97.1c-4.78,0.11-7.42,3.01-7.3,8
			c0.11,4.56,3.05,7.38,7.59,7.28c4.29-0.09,7.01-3.16,6.96-7.85C556.66,99.81,553.92,97,549.46,97.1z"/>
	</g>
	<path class="st1" d="M513.54,265.57H307.62c-3.1,0-5.61-2.51-5.61-5.61s2.51-5.61,5.61-5.61h205.92c3.1,0,5.61,2.51,5.61,5.61
		S516.64,265.57,513.54,265.57z"/>
	<path class="st1" d="M358.45,264.45c-1,0-1.98-0.33-2.78-0.97c-1.08-0.85-1.71-2.15-1.71-3.52V69.24c0-2.48,2.01-4.49,4.49-4.49
		H469.6c2.48,0,4.49,2.01,4.49,4.49v190.72c0,2.48-2.01,4.49-4.49,4.49c-2.48,0-4.49-2.01-4.49-4.49V73.73h-90.3l41.77,28.86
		c1.21,0.84,1.94,2.22,1.94,3.69v140.44c0,2.08-1.43,3.89-3.45,4.37l-55.57,13.24C359.15,264.41,358.8,264.45,358.45,264.45z
		 M362.94,76.1v178.17l46.59-11.1V108.65l-45.45-31.4C363.63,76.92,363.24,76.54,362.94,76.1z"/>
	<path class="st1" d="M464.43,227.81h-25.99c-1.86,0-3.37-1.51-3.37-3.37v-79.11c0-10.9-11.35-14.84-21.07-14.91
		c-1.86-0.01-3.36-1.53-3.34-3.39c0.01-1.86,1.49-3.42,3.39-3.34c13.82,0.09,27.76,6.82,27.76,21.65v75.74h22.62
		c1.86,0,3.37,1.51,3.37,3.37C467.8,226.3,466.29,227.81,464.43,227.81z"/>
	<path class="st1" d="M469.6,97.59h-69.45c-1.86,0-3.37-1.51-3.37-3.37s1.51-3.37,3.37-3.37h69.45c1.86,0,3.37,1.51,3.37,3.37
		S471.46,97.59,469.6,97.59z"/>
	<polygon class="st1" points="361.47,69.24 469.6,69.24 469.6,259.96 374.82,259.96 414.03,246.73 414.03,103.99 	"/>
</g>
<g id="Layer_4">
	<path d="M514.3,267.29H308.48c-3.1,0-5.61-2.51-5.61-5.61v-97.08c0-3.1,2.51-5.61,5.61-5.61H514.3c3.1,0,5.61,2.51,5.61,5.61v97.08
		C519.91,264.77,517.4,267.29,514.3,267.29z M314.09,256.06h194.59v-85.85H314.09V256.06z"/>
	<path d="M434.11,265.04h-41.88c-1.86,0-3.37-1.51-3.37-3.37v-65.04c0-1.86,1.51-3.37,3.37-3.37h41.88c1.86,0,3.37,1.51,3.37,3.37
		v65.04C437.48,263.53,435.97,265.04,434.11,265.04z M395.6,258.31h35.14V200H395.6V258.31z"/>
	<path d="M487.57,241.41h-31.18c-1.86,0-3.37-1.51-3.37-3.37v-48.39c0-1.86,1.51-3.37,3.37-3.37h31.18c1.86,0,3.37,1.51,3.37,3.37
		v48.39C490.93,239.9,489.43,241.41,487.57,241.41z M459.75,234.67h24.45v-41.66h-24.45V234.67z"/>
	<path d="M493.09,152.46h-42.23c-1.55,0-2.81-1.26-2.81-2.81v-39.7c0-1.55,1.26-2.81,2.81-2.81h42.23c1.55,0,2.81,1.26,2.81,2.81
		v39.7C495.9,151.21,494.64,152.46,493.09,152.46z M453.66,146.85h36.62v-34.08h-36.62V146.85z"/>
	<path d="M369.96,241.41h-31.18c-1.86,0-3.37-1.51-3.37-3.37v-48.39c0-1.86,1.51-3.37,3.37-3.37h31.18c1.86,0,3.37,1.51,3.37,3.37
		v48.39C373.33,239.9,371.82,241.41,369.96,241.41z M342.14,234.67h24.45v-41.66h-24.45V234.67z"/>
	<path d="M525.88,170.21H294.23c-3.1,0-5.61-2.51-5.61-5.61v-91.8c0-3.1,2.51-5.61,5.61-5.61h231.65c3.1,0,5.61,2.51,5.61,5.61v91.8
		C531.49,167.69,528.98,170.21,525.88,170.21z M299.84,158.98h220.42V78.4H299.84V158.98z"/>
	<path d="M450.86,112.76c-0.56,0-1.12-0.17-1.61-0.51c-1.27-0.89-1.57-2.64-0.68-3.91l21.12-29.97c0.53-0.75,1.38-1.19,2.29-1.19
		l0,0c0.91,0,1.77,0.44,2.29,1.19l21.12,29.97c0.89,1.27,0.59,3.02-0.68,3.91c-1.27,0.89-3.02,0.59-3.91-0.68l-18.82-26.71
		l-18.82,26.71C452.6,112.35,451.74,112.76,450.86,112.76z"/>
	<path d="M375.48,152.46h-42.23c-1.55,0-2.81-1.26-2.81-2.81v-39.7c0-1.55,1.26-2.81,2.81-2.81h42.23c1.55,0,2.81,1.26,2.81,2.81
		v39.7C378.29,151.21,377.03,152.46,375.48,152.46z M336.06,146.85h36.62v-34.08h-36.62V146.85z"/>
	<path d="M375.49,112.76c-0.88,0-1.75-0.41-2.3-1.19l-18.82-26.71l-18.82,26.71c-0.89,1.27-2.64,1.57-3.91,0.68
		c-1.27-0.89-1.57-2.64-0.68-3.91l21.12-29.97c1.05-1.49,3.54-1.49,4.59,0l21.12,29.97c0.89,1.27,0.59,3.02-0.68,3.91
		C376.61,112.6,376.04,112.76,375.49,112.76z"/>
</g>
</svg>
